<svg id="Vrstva_1" data-name="Vrstva 1" xmlns="http://www.w3.org/2000/svg" viewBox="0 0 1172 403.51"><defs><style>.cls-1{fill:#fff;}</style></defs><title>DRINK2GO_logo</title><path class="cls-1" d="M654.23,293.78v-36l70.91-64.23c9-8.47,14.9-17,14.9-28,0-12.85-9-21.84-22.61-21.84-14.38,0-23.89,11.31-25.69,27.49l-41.36-5.65c4.11-36.74,33.91-58.58,69.37-58.58,33.39,0,65.77,17.72,65.77,55.75,0,25.95-15.16,41.11-31.86,56l-42.14,37.51h74.25v37.51Z"/><path class="cls-1" d="M174.49,161.47H127l-4.48,60.21V154.9h45.45a63,63,0,0,1,47.92,21.81,63.18,63.18,0,0,0-41.35-15.24M163.28,262.31H155V182.69h8.68c23.77,0,40.56,14.34,40.56,39.81,0,27.73-18.87,39.81-40.94,39.81m7.17-110.94H118V293.63h52.45c39.44,0,72.26-31.14,72.26-71.13s-32.63-71.13-72.26-71.13"/><path class="cls-1" d="M297.51,161.68H252.09l-3.33,60.21V155.11l48.31.25c17.94,0,28.39,8.14,39.19,21.56a57.07,57.07,0,0,0-38.75-15.24m-12.16,53.46h-3.59V179.67h3.59c12.08,0,25.66,2.26,25.66,17.73s-13.58,17.74-25.66,17.74m33,20.19c20.18-3.59,31.13-20.57,31.13-40.19,0-30.37-21.32-43.77-49.44-43.77H244.78V293.63h37V238.91h.38L317,293.63h46Z"/><path class="cls-1" d="M388.39,154.55l-20.82,6.18-5.44,49.89V154.55ZM358,151.37V293.62h37V151.37Z"/><path class="cls-1" d="M556.22,160.73l-5.43,49.89V154.55H577Zm100.51,13-7.32-1a7.2,7.2,0,0,1-6.18-7.93c.22-1.93.51-3.8.86-5.66,0,0,0,0,0,0l-9.19,1.64-33.8,34.34L632,154.55h13v0c.26-1.09.56-2.17.87-3.23H629.66L585,210h-.38V151.37h-37V293.63h37v-61.7H585l47.73,61.7H647V257.81a7.18,7.18,0,0,1,1.06-3.67L618.9,218.72Z"/><path class="cls-1" d="M976.68,261.28c-21.69,0-39.5-17.61-39.5-41.72,0-19.29,17.81-36.91,39.5-36.91s39.49,17.62,39.49,36.91c0,24.11-17.79,41.72-39.49,41.72M908.81,234a87.16,87.16,0,0,0,2.84,22.41A77.3,77.3,0,0,1,905,224.06c0-43.9,29.75-72.76,73.3-72.76,14.52,0,27.3,3.48,37.88,10.38A78.25,78.25,0,0,0,987,156.4c-46.44,0-78.16,30.76-78.16,77.58M799.3,159.16a72.68,72.68,0,0,1,54.9.39,77.05,77.05,0,0,0-40.56,4.62,114.72,114.72,0,0,1-10.11,10L797,180s3.27-12.28,2.34-20.81m177.38-11.74c-38.44,0-74,27.09-77.08,66.39H836.13v28.55h29.66c-1.48,16.14-13.53,24.29-29.29,24.29-23.92,0-36.9-22.06-36.9-43.76,0-21.32,12.42-44.13,36.34-44.13,14.65,0,25.22,8.9,30.23,22.25l34.49-14.46c-12.06-26.15-34.3-39.13-63-39.13-17.45,0-32.75,4.5-45,12.63,0,.9.07,1.79.07,2.7,0,26.67-14.24,43.12-30.91,58.35,0,.54,0,1.06,0,1.61a82.68,82.68,0,0,0,4.12,26.36h19.89a7.2,7.2,0,0,1,7.19,7.2v28.18c11.9,7.75,26.65,12.06,43.34,12.06,23.37,0,44-8.35,57.67-27.45a69.33,69.33,0,0,0,10.24-21c10.63,29.45,37.84,48.45,72.46,48.45,44.88,0,77.32-31.9,77.32-77.14,0-42.28-37.08-72-77.32-72"/><path class="cls-1" d="M430.57,154.55l-20.83,6.18-5.43,49.89V154.55Zm104.68,0-20.83,6.18L509,210.62V154.55Zm7.06-3.18h-37v87H505l-67.73-87h-37V293.62h37V206.46h.38l67.74,87.16h37Z"/></svg>